<svg width="120" height="120" viewBox="0 0 120 120" fill="none" xmlns="http://www.w3.org/2000/svg">
<path d="M38.6386 25.6799H10.5586V71.5199H38.6386V25.6799Z" fill="white"/>
<path d="M109.438 25.6799H83.7578V71.5199H109.438V25.6799Z" fill="white"/>
<path d="M62.3996 74.1599H57.5996V77.0399H62.3996V74.1599Z" fill="#A3A3A3"/>
<path d="M70.3194 95.52V83.76H62.6394V95.52H57.3594V98.4H62.6394H70.3194H83.5194V95.52H70.3194Z" fill="white"/>
<path d="M110.879 82.7999H9.11914V20.1599H34.3191V23.0399H11.9991V79.9199H107.999V23.0399H85.4391V20.1599H110.879V82.7999Z" fill="#A3A3A3"/>
<path d="M53.9991 81.3599H51.1191V95.9999H53.9991V81.3599Z" fill="#A3A3A3"/>
<path d="M68.88 81.3599H66V95.9999H68.88V81.3599Z" fill="#A3A3A3"/>
<path d="M82.5595 94.5598H37.4395V97.4398H82.5595V94.5598Z" fill="#A3A3A3"/>
<path d="M61.6786 24.72H58.5586V27.6H61.6786V24.72Z" fill="#A3A3A3"/>
<path d="M82.7992 71.52H79.9192V9.35998H40.0792V71.52H37.1992V6.47998H82.7992V71.52Z" fill="#A3A3A3"/>
<path d="M71.7578 17.28H59.7578V20.16H71.7578V17.28Z" fill="#A3A3A3"/>
<path d="M55.4388 17.28H48.7188V20.16H55.4388V17.28Z" fill="#A3A3A3"/>
<path d="M71.7588 24.72H48.7188V27.6H71.7588V24.72Z" fill="#A3A3A3"/>
<path d="M71.759 31.9199H66.959V34.7999H71.759V31.9199Z" fill="#A3A3A3"/>
<path d="M62.6388 31.9199H48.7188V34.7999H62.6388V31.9199Z" fill="#A3A3A3"/>
<path d="M71.7582 39.3599H62.1582V42.2399H71.7582V39.3599Z" fill="#A3A3A3"/>
<path d="M57.3588 39.3599H48.7188V42.2399H57.3588V39.3599Z" fill="#A3A3A3"/>
<path d="M71.7588 46.5598H48.7188V49.4398H71.7588V46.5598Z" fill="#A3A3A3"/>
<path d="M71.7582 54H62.1582V56.88H71.7582V54Z" fill="#A3A3A3"/>
<path d="M57.3588 54H48.7188V56.88H57.3588V54Z" fill="#A3A3A3"/>
<path d="M71.7588 61.4399H48.7188V64.3199H71.7588V61.4399Z" fill="#A3A3A3"/>
</svg>
