<svg width="150" height="150" viewBox="0 0 150 150" fill="none" xmlns="http://www.w3.org/2000/svg">
<g clip-path="url(#clip0_267_454)">
<path d="M75 150C116.421 150 150 116.421 150 75C150 33.5786 116.421 0 75 0C33.5786 0 0 33.5786 0 75C0 116.421 33.5786 150 75 150Z" fill="#06AA00"/>
<path fill-rule="evenodd" clip-rule="evenodd" d="M66.2567 73.9407C66.1506 74.398 66.1872 74.8767 66.3615 75.3126L77.7123 103.691C78.1646 104.836 78.5419 105.515 78.8434 105.726C79.1449 105.907 79.9141 105.997 81.1508 105.997H82.5529C83.7896 105.997 84.5434 105.907 84.8151 105.726C85.1166 105.515 85.5085 104.851 85.9914 103.736L99.9705 70.4391L104.132 103.147C104.314 104.474 104.57 105.288 104.901 105.59C105.233 105.862 106.063 105.997 107.39 105.997H117.207C118.383 105.997 119.182 105.877 119.604 105.636C120.057 105.364 120.283 104.897 120.283 104.233C120.283 103.992 120.223 103.464 120.102 102.65L111.687 47.0502C111.476 45.7533 111.205 44.9692 110.873 44.6977C110.542 44.3961 109.727 44.2454 108.43 44.2454H97.7993C96.5625 44.2454 95.7934 44.3509 95.4919 44.562C95.2202 44.743 94.8429 45.4065 94.3608 46.5525L82.0554 77.1795L74.4578 57.1951C73.652 55.0755 70.5881 55.283 70.0753 57.4918L66.2567 73.9407Z" fill="white"/>
<path d="M54.9908 42.2599C55.1367 41.6149 55.7098 41.157 56.371 41.157H66.5949C67.5024 41.157 68.1753 41.9991 67.9751 42.8843L53.9455 104.91C53.7996 105.555 53.2266 106.012 52.5653 106.012H42.3415C41.434 106.012 40.761 105.171 40.9612 104.285L54.9908 42.2599Z" fill="white"/>
<path d="M37.233 42.2599C37.3789 41.6149 37.9519 41.157 38.6132 41.157H48.837C49.7445 41.157 50.4175 41.9991 50.2173 42.8843L36.1878 104.91C36.0419 105.555 35.4688 106.012 34.8075 106.012H24.5837C23.6762 106.012 23.0032 105.171 23.2034 104.285L37.233 42.2599Z" fill="white"/>
</g>
<defs>
<clipPath id="clip0_267_454">
<rect width="150" height="150" fill="white"/>
</clipPath>
</defs>
</svg>
